<svg width="380" height="140" viewBox="0 0 380 140" fill="none" xmlns="http://www.w3.org/2000/svg">
<rect width="380" height="140" fill="#262626"/>
<path d="M31 55H43V61H55V85H31V55ZM43 67V79H49V67H43ZM61 55H73V85H61V55ZM78.9883 61H102.988V85H78.9883V61ZM84.9883 67V79H90.9883V67H84.9883ZM108.988 61H132.988V73H126.988V67H120.988V79H132.988V85H108.988V61ZM138.988 55H150.988V67H156.988V61H162.988V85H156.988V73H150.988V85H138.988V55ZM168.988 61H192.988V73H186.988V67H180.988V79H192.988V85H168.988V61ZM198.988 61H222.988V85H198.988V61ZM210.988 67V79H216.988V67H210.988ZM228.988 55H240.988V61H228.988V55ZM228.988 67H240.988V85H228.988V67ZM246.977 61H270.977V85H264.977V67H258.977V85H246.977V61ZM276.977 67H300.977V73H276.977V67ZM306.977 55H318.977V61H306.977V55ZM306.977 67H318.977V85H306.977V67ZM324.965 61H348.965V85H324.965V61ZM336.965 67V79H342.965V67H336.965Z" fill="white"/>
</svg>
